<svg width="54" height="51" viewBox="0 0 54 51" fill="none" xmlns="http://www.w3.org/2000/svg">
<path d="M19.6668 50C20.9555 50 22.0002 48.9553 22.0002 47.6666C22.0002 46.378 20.9555 45.3333 19.6668 45.3333C18.3782 45.3333 17.3335 46.378 17.3335 47.6666C17.3335 48.9553 18.3782 50 19.6668 50Z" stroke="white" stroke-width="2" stroke-linecap="round" stroke-linejoin="round"/>
<path d="M45.3333 50C46.622 50 47.6667 48.9553 47.6667 47.6666C47.6667 46.378 46.622 45.3333 45.3333 45.3333C44.0447 45.3333 43 46.378 43 47.6666C43 48.9553 44.0447 50 45.3333 50Z" stroke="white" stroke-width="2" stroke-linecap="round" stroke-linejoin="round"/>
<path d="M1 1H10.3333L16.5867 32.2433C16.8 33.3176 17.3845 34.2826 18.2376 34.9694C19.0908 35.6562 20.1583 36.021 21.2533 36H43.9333C45.0284 36.021 46.0959 35.6562 46.9491 34.9694C47.8022 34.2826 48.3866 33.3176 48.6 32.2433L52.3333 12.6667H12.6667" stroke="white" stroke-width="2" stroke-linecap="round" stroke-linejoin="round"/>
</svg>
