<svg width="116" height="107" viewBox="0 0 116 107" fill="none" xmlns="http://www.w3.org/2000/svg">
<path d="M19.261 80.5993V67.5084H23.8377C24.7496 67.5084 25.5018 67.6661 26.0941 67.9814C26.6864 68.2925 27.1275 68.7122 27.4173 69.2406C27.707 69.7648 27.8519 70.3465 27.8519 70.9857C27.8519 71.5482 27.7518 72.0127 27.5515 72.3791C27.3555 72.7456 27.0955 73.0354 26.7717 73.2485C26.4521 73.4615 26.1048 73.6192 25.7298 73.7215V73.8493C26.1303 73.8749 26.533 74.0155 26.9379 74.2712C27.3427 74.5269 27.6815 74.8933 27.9542 75.3706C28.2269 75.8479 28.3633 76.4317 28.3633 77.122C28.3633 77.7783 28.2141 78.3685 27.9158 78.8926C27.6175 79.4168 27.1467 79.8323 26.5032 80.1391C25.8597 80.4459 25.0224 80.5993 23.9911 80.5993H19.261ZM20.8462 79.1931H23.9911C25.0266 79.1931 25.7617 78.9928 26.1964 78.5922C26.6353 78.1874 26.8548 77.6973 26.8548 77.122C26.8548 76.6788 26.7418 76.2698 26.516 75.8948C26.2901 75.5155 25.9684 75.2129 25.5508 74.9871C25.1332 74.757 24.6388 74.6419 24.0678 74.6419H20.8462V79.1931ZM20.8462 73.2612H23.7866C24.2638 73.2612 24.6942 73.1675 25.0778 72.98C25.4656 72.7925 25.7724 72.5283 25.9982 72.1874C26.2283 71.8465 26.3434 71.4459 26.3434 70.9857C26.3434 70.4104 26.1431 69.9225 25.7425 69.5219C25.342 69.1171 24.707 68.9146 23.8377 68.9146H20.8462V73.2612ZM33.6527 80.8294C33.0305 80.8294 32.4659 80.7122 31.9588 80.4779C31.4517 80.2392 31.049 79.8962 30.7507 79.4487C30.4524 78.997 30.3033 78.4516 30.3033 77.8124C30.3033 77.2499 30.4141 76.7939 30.6357 76.4445C30.8572 76.0908 31.1534 75.8138 31.5241 75.6135C31.8949 75.4132 32.304 75.2641 32.7514 75.1661C33.2031 75.0638 33.657 74.9828 34.1129 74.9232C34.7095 74.8465 35.1932 74.7889 35.5639 74.7506C35.9389 74.708 36.2116 74.6377 36.3821 74.5396C36.5568 74.4416 36.6442 74.2712 36.6442 74.0283V73.9771C36.6442 73.3465 36.4716 72.8564 36.1264 72.507C35.7855 72.1575 35.2678 71.9828 34.5732 71.9828C33.853 71.9828 33.2884 72.1405 32.8793 72.4558C32.4702 72.7712 32.1825 73.1078 32.0163 73.4658L30.5845 72.9544C30.8402 72.3578 31.1811 71.8933 31.6072 71.561C32.0376 71.2243 32.5064 70.9899 33.0135 70.8578C33.5249 70.7215 34.0277 70.6533 34.522 70.6533C34.8374 70.6533 35.1996 70.6916 35.6087 70.7683C36.022 70.8408 36.4205 70.9921 36.804 71.2222C37.1918 71.4523 37.5135 71.7996 37.7692 72.2641C38.0249 72.7286 38.1527 73.3507 38.1527 74.1306V80.5993H36.6442V79.2698H36.5675C36.4652 79.4828 36.2947 79.7108 36.0561 79.9537C35.8175 80.1966 35.5 80.4033 35.1037 80.5737C34.7074 80.7442 34.2237 80.8294 33.6527 80.8294ZM33.8828 79.4743C34.4794 79.4743 34.9822 79.3571 35.3913 79.1227C35.8047 78.8884 36.1158 78.5858 36.3246 78.2151C36.5376 77.8443 36.6442 77.4544 36.6442 77.0453V75.6646C36.5803 75.7413 36.4396 75.8117 36.2223 75.8756C36.0092 75.9352 35.7621 75.9885 35.4808 76.0354C35.2038 76.078 34.9332 76.1163 34.669 76.1504C34.4091 76.1803 34.1982 76.2058 34.0362 76.2271C33.6442 76.2783 33.2777 76.3614 32.9368 76.4764C32.6001 76.5872 32.3274 76.7556 32.1186 76.9814C31.9141 77.203 31.8118 77.5056 31.8118 77.8891C31.8118 78.4132 32.0057 78.8095 32.3935 79.078C32.7855 79.3422 33.282 79.4743 33.8828 79.4743ZM45.176 70.7811V72.0595H40.0879V70.7811H45.176ZM41.5708 68.4288H43.0794V77.7868C43.0794 78.2129 43.1412 78.5325 43.2647 78.7456C43.3926 78.9544 43.5545 79.095 43.7505 79.1675C43.9508 79.2357 44.1618 79.2698 44.3833 79.2698C44.5495 79.2698 44.6859 79.2612 44.7924 79.2442C44.899 79.2229 44.9842 79.2058 45.0481 79.1931L45.3549 80.5482C45.2527 80.5865 45.1099 80.6249 44.9267 80.6632C44.7434 80.7058 44.5112 80.7271 44.2299 80.7271C43.8038 80.7271 43.3862 80.6355 42.9771 80.4523C42.5723 80.269 42.2356 79.9899 41.9672 79.6149C41.7029 79.2399 41.5708 78.7669 41.5708 78.1959V68.4288ZM50.3343 80.8294C49.7122 80.8294 49.1475 80.7122 48.6404 80.4779C48.1333 80.2392 47.7306 79.8962 47.4324 79.4487C47.1341 78.997 46.9849 78.4516 46.9849 77.8124C46.9849 77.2499 47.0957 76.7939 47.3173 76.4445C47.5389 76.0908 47.835 75.8138 48.2058 75.6135C48.5765 75.4132 48.9856 75.2641 49.4331 75.1661C49.8848 75.0638 50.3386 74.9828 50.7946 74.9232C51.3912 74.8465 51.8748 74.7889 52.2456 74.7506C52.6206 74.708 52.8933 74.6377 53.0637 74.5396C53.2385 74.4416 53.3258 74.2712 53.3258 74.0283V73.9771C53.3258 73.3465 53.1532 72.8564 52.8081 72.507C52.4672 72.1575 51.9494 71.9828 51.2548 71.9828C50.5346 71.9828 49.97 72.1405 49.5609 72.4558C49.1518 72.7712 48.8642 73.1078 48.698 73.4658L47.2662 72.9544C47.5218 72.3578 47.8627 71.8933 48.2889 71.561C48.7193 71.2243 49.188 70.9899 49.6951 70.8578C50.2065 70.7215 50.7093 70.6533 51.2037 70.6533C51.519 70.6533 51.8812 70.6916 52.2903 70.7683C52.7037 70.8408 53.1021 70.9921 53.4856 71.2222C53.8734 71.4523 54.1951 71.7996 54.4508 72.2641C54.7065 72.7286 54.8343 73.3507 54.8343 74.1306V80.5993H53.3258V79.2698H53.2491C53.1468 79.4828 52.9764 79.7108 52.7377 79.9537C52.4991 80.1966 52.1816 80.4033 51.7853 80.5737C51.389 80.7442 50.9054 80.8294 50.3343 80.8294ZM50.5645 79.4743C51.161 79.4743 51.6639 79.3571 52.073 79.1227C52.4863 78.8884 52.7974 78.5858 53.0062 78.2151C53.2193 77.8443 53.3258 77.4544 53.3258 77.0453V75.6646C53.2619 75.7413 53.1213 75.8117 52.9039 75.8756C52.6909 75.9352 52.4437 75.9885 52.1625 76.0354C51.8855 76.078 51.6149 76.1163 51.3507 76.1504C51.0907 76.1803 50.8798 76.2058 50.7179 76.2271C50.3258 76.2783 49.9593 76.3614 49.6184 76.4764C49.2818 76.5872 49.0091 76.7556 48.8002 76.9814C48.5957 77.203 48.4934 77.5056 48.4934 77.8891C48.4934 78.4132 48.6873 78.8095 49.0751 79.078C49.4672 79.3422 49.9636 79.4743 50.5645 79.4743ZM61.8576 70.7811V72.0595H56.7695V70.7811H61.8576ZM58.2525 68.4288H59.761V77.7868C59.761 78.2129 59.8228 78.5325 59.9464 78.7456C60.0742 78.9544 60.2362 79.095 60.4322 79.1675C60.6325 79.2357 60.8434 79.2698 61.065 79.2698C61.2312 79.2698 61.3675 79.2612 61.4741 79.2442C61.5806 79.2229 61.6658 79.2058 61.7298 79.1931L62.0366 80.5482C61.9343 80.5865 61.7915 80.6249 61.6083 80.6632C61.4251 80.7058 61.1928 80.7271 60.9116 80.7271C60.4854 80.7271 60.0678 80.6355 59.6587 80.4523C59.2539 80.269 58.9173 79.9899 58.6488 79.6149C58.3846 79.2399 58.2525 78.7669 58.2525 78.1959V68.4288ZM64.1268 80.5993V70.7811H65.6353V80.5993H64.1268ZM64.8938 69.1448C64.5998 69.1448 64.3462 69.0446 64.1332 68.8443C63.9244 68.644 63.82 68.4033 63.82 68.122C63.82 67.8408 63.9244 67.6 64.1332 67.3997C64.3462 67.1994 64.5998 67.0993 64.8938 67.0993C65.1879 67.0993 65.4393 67.1994 65.6481 67.3997C65.8612 67.6 65.9677 67.8408 65.9677 68.122C65.9677 68.4033 65.8612 68.644 65.6481 68.8443C65.4393 69.0446 65.1879 69.1448 64.8938 69.1448ZM69.9068 74.6931V80.5993H68.3983V70.7811H69.8556V72.3152H69.9835C70.2136 71.8166 70.563 71.4161 71.0318 71.1135C71.5005 70.8067 72.1056 70.6533 72.8471 70.6533C73.5119 70.6533 74.0936 70.7896 74.5922 71.0624C75.0907 71.3308 75.4785 71.7399 75.7555 72.2896C76.0325 72.8351 76.171 73.5254 76.171 74.3607V80.5993H74.6625V74.4629C74.6625 73.6916 74.4622 73.0908 74.0616 72.6604C73.661 72.2257 73.1113 72.0084 72.4125 72.0084C71.9309 72.0084 71.5005 72.1128 71.1213 72.3216C70.7463 72.5304 70.4501 72.8351 70.2328 73.2357C70.0154 73.6362 69.9068 74.122 69.9068 74.6931ZM80.4361 74.6931V80.5993H78.9276V67.5084H80.4361V72.3152H80.5639C80.794 71.8081 81.1392 71.4054 81.5994 71.1071C82.0639 70.8046 82.6818 70.6533 83.4531 70.6533C84.1222 70.6533 84.7081 70.7875 85.2109 71.056C85.7138 71.3202 86.1037 71.7271 86.3807 72.2769C86.6619 72.8223 86.8026 73.5169 86.8026 74.3607V80.5993H85.294V74.4629C85.294 73.6831 85.0916 73.0801 84.6868 72.654C84.2862 72.2236 83.7301 72.0084 83.0185 72.0084C82.5241 72.0084 82.081 72.1128 81.6889 72.3216C81.3011 72.5304 80.9943 72.8351 80.7685 73.2357C80.5469 73.6362 80.4361 74.122 80.4361 74.6931ZM92.4515 80.8294C91.8294 80.8294 91.2647 80.7122 90.7576 80.4779C90.2505 80.2392 89.8478 79.8962 89.5495 79.4487C89.2512 78.997 89.1021 78.4516 89.1021 77.8124C89.1021 77.2499 89.2129 76.7939 89.4345 76.4445C89.6561 76.0908 89.9522 75.8138 90.323 75.6135C90.6937 75.4132 91.1028 75.2641 91.5502 75.1661C92.002 75.0638 92.4558 74.9828 92.9118 74.9232C93.5083 74.8465 93.992 74.7889 94.3627 74.7506C94.7377 74.708 95.0105 74.6377 95.1809 74.5396C95.3556 74.4416 95.443 74.2712 95.443 74.0283V73.9771C95.443 73.3465 95.2704 72.8564 94.9252 72.507C94.5843 72.1575 94.0666 71.9828 93.372 71.9828C92.6518 71.9828 92.0872 72.1405 91.6781 72.4558C91.269 72.7712 90.9814 73.1078 90.8152 73.4658L89.3833 72.9544C89.639 72.3578 89.9799 71.8933 90.4061 71.561C90.8365 71.2243 91.3052 70.9899 91.8123 70.8578C92.3237 70.7215 92.8265 70.6533 93.3208 70.6533C93.6362 70.6533 93.9984 70.6916 94.4075 70.7683C94.8208 70.8408 95.2193 70.9921 95.6028 71.2222C95.9906 71.4523 96.3123 71.7996 96.568 72.2641C96.8237 72.7286 96.9515 73.3507 96.9515 74.1306V80.5993H95.443V79.2698H95.3663C95.264 79.4828 95.0936 79.7108 94.8549 79.9537C94.6163 80.1966 94.2988 80.4033 93.9025 80.5737C93.5062 80.7442 93.0226 80.8294 92.4515 80.8294ZM92.6816 79.4743C93.2782 79.4743 93.7811 79.3571 94.1902 79.1227C94.6035 78.8884 94.9146 78.5858 95.1234 78.2151C95.3365 77.8443 95.443 77.4544 95.443 77.0453V75.6646C95.3791 75.7413 95.2385 75.8117 95.0211 75.8756C94.8081 75.9352 94.5609 75.9885 94.2797 76.0354C94.0027 76.078 93.7321 76.1163 93.4679 76.1504C93.2079 76.1803 92.997 76.2058 92.8351 76.2271C92.443 76.2783 92.0765 76.3614 91.7356 76.4764C91.399 76.5872 91.1262 76.7556 90.9174 76.9814C90.7129 77.203 90.6106 77.5056 90.6106 77.8891C90.6106 78.4132 90.8045 78.8095 91.1923 79.078C91.5843 79.3422 92.0808 79.4743 92.6816 79.4743ZM26.0198 102.599V89.5084H33.9204V90.9146H27.605V95.3379H33.5113V96.7442H27.605V101.193H34.0226V102.599H26.0198ZM37.6981 92.7811L40.0503 96.7953L42.4026 92.7811H44.1412L40.9708 97.6902L44.1412 102.599H42.4026L40.0503 98.7896L37.6981 102.599H35.9594L39.0787 97.6902L35.9594 92.7811H37.6981ZM46.2938 106.281V92.7811H47.7512V94.3408H47.9301C48.0409 94.1703 48.1943 93.953 48.3904 93.6888C48.5906 93.4203 48.8762 93.1817 49.2469 92.9729C49.6219 92.7598 50.129 92.6533 50.7682 92.6533C51.5949 92.6533 52.3236 92.86 52.9543 93.2733C53.585 93.6867 54.0771 94.2726 54.4308 95.0311C54.7845 95.7896 54.9614 96.6845 54.9614 97.7158C54.9614 98.7556 54.7845 99.6568 54.4308 100.42C54.0771 101.178 53.5871 101.766 52.9607 102.184C52.3343 102.597 51.6119 102.804 50.7938 102.804C50.1631 102.804 49.6581 102.699 49.2789 102.491C48.8996 102.278 48.6077 102.037 48.4031 101.768C48.1986 101.496 48.0409 101.27 47.9301 101.091H47.8023V106.281H46.2938ZM47.7767 97.6902C47.7767 98.4317 47.8854 99.0858 48.1027 99.6526C48.32 100.215 48.6375 100.656 49.0551 100.976C49.4727 101.291 49.9841 101.449 50.5892 101.449C51.2199 101.449 51.7462 101.283 52.1681 100.95C52.5942 100.614 52.9138 100.162 53.1269 99.595C53.3442 99.024 53.4529 98.3891 53.4529 97.6902C53.4529 96.9999 53.3463 96.3777 53.1333 95.8237C52.9244 95.2655 52.607 94.8244 52.1808 94.5006C51.759 94.1725 51.2284 94.0084 50.5892 94.0084C49.9756 94.0084 49.46 94.1639 49.0423 94.475C48.6247 94.7818 48.3094 95.2122 48.0963 95.7662C47.8833 96.3159 47.7767 96.9573 47.7767 97.6902ZM57.2625 102.599V92.7811H58.7199V94.2641H58.8222C59.0012 93.7783 59.325 93.3841 59.7938 93.0815C60.2625 92.779 60.7909 92.6277 61.379 92.6277C61.4898 92.6277 61.6283 92.6298 61.7945 92.6341C61.9607 92.6384 62.0864 92.6448 62.1716 92.6533V94.1874C62.1205 94.1746 62.0033 94.1554 61.82 94.1298C61.6411 94.1 61.4514 94.0851 61.2512 94.0851C60.7739 94.0851 60.3477 94.1852 59.9727 94.3855C59.602 94.5815 59.308 94.8543 59.0906 95.2037C58.8776 95.5489 58.771 95.9431 58.771 96.3862V102.599H57.2625ZM67.7774 102.804C66.8314 102.804 66.0154 102.595 65.3293 102.177C64.6475 101.756 64.1212 101.167 63.7504 100.413C63.384 99.6547 63.2007 98.7726 63.2007 97.7669C63.2007 96.7612 63.384 95.8749 63.7504 95.1078C64.1212 94.3365 64.6368 93.7357 65.2973 93.3053C65.9621 92.8706 66.7377 92.6533 67.624 92.6533C68.1354 92.6533 68.6404 92.7385 69.1389 92.909C69.6375 93.0794 70.0914 93.3564 70.5004 93.7399C70.9095 94.1192 71.2355 94.622 71.4784 95.2485C71.7213 95.8749 71.8428 96.6462 71.8428 97.5624V98.2016H64.2746V96.8976H70.3087C70.3087 96.3436 70.1979 95.8493 69.9763 95.4146C69.759 94.98 69.4479 94.6369 69.0431 94.3855C68.6425 94.1341 68.1695 94.0084 67.624 94.0084C67.0232 94.0084 66.5033 94.1575 66.0644 94.4558C65.6297 94.7499 65.2952 95.1334 65.0608 95.6064C64.8264 96.0794 64.7093 96.5865 64.7093 97.1277V97.997C64.7093 98.7385 64.8371 99.3671 65.0928 99.8827C65.3527 100.394 65.7128 100.784 66.173 101.052C66.6333 101.317 67.1681 101.449 67.7774 101.449C68.1737 101.449 68.5317 101.393 68.8513 101.283C69.1752 101.167 69.4543 100.997 69.6887 100.771C69.923 100.541 70.1041 100.256 70.232 99.9146L71.6894 100.324C71.536 100.818 71.2781 101.253 70.9159 101.628C70.5537 101.998 70.1063 102.288 69.5736 102.497C69.0409 102.702 68.4422 102.804 67.7774 102.804ZM81.0921 94.98L79.7369 95.3635C79.6517 95.1377 79.526 94.9182 79.3598 94.7051C79.1979 94.4878 78.9763 94.3088 78.695 94.1682C78.4138 94.0276 78.0537 93.9573 77.6148 93.9573C77.0139 93.9573 76.5132 94.0958 76.1127 94.3727C75.7164 94.6455 75.5182 94.9928 75.5182 95.4146C75.5182 95.7896 75.6546 96.0858 75.9273 96.3031C76.2 96.5205 76.6262 96.7016 77.2057 96.8465L78.6631 97.2044C79.5409 97.4175 80.195 97.7435 80.6254 98.1824C81.0558 98.6171 81.271 99.1774 81.271 99.8635C81.271 100.426 81.1091 100.929 80.7852 101.372C80.4656 101.815 80.0182 102.165 79.4429 102.42C78.8676 102.676 78.1986 102.804 77.4358 102.804C76.4344 102.804 75.6056 102.587 74.9493 102.152C74.2931 101.717 73.8776 101.082 73.7029 100.247L75.1347 99.8891C75.271 100.417 75.5289 100.814 75.9081 101.078C76.2916 101.342 76.7923 101.474 77.4102 101.474C78.1134 101.474 78.6716 101.325 79.085 101.027C79.5026 100.724 79.7114 100.362 79.7114 99.9402C79.7114 99.5993 79.5921 99.3138 79.3534 99.0837C79.1148 98.8493 78.7483 98.6746 78.254 98.5595L76.6176 98.176C75.7185 97.9629 75.058 97.6327 74.6361 97.1852C74.2185 96.7335 74.0097 96.1689 74.0097 95.4913C74.0097 94.9374 74.1652 94.4473 74.4763 94.0212C74.7916 93.595 75.2199 93.2605 75.7611 93.0176C76.3066 92.7747 76.9244 92.6533 77.6148 92.6533C78.5864 92.6533 79.3492 92.8663 79.9031 93.2925C80.4614 93.7186 80.8577 94.2811 81.0921 94.98ZM90.4964 94.98L89.1412 95.3635C89.056 95.1377 88.9303 94.9182 88.7641 94.7051C88.6022 94.4878 88.3806 94.3088 88.0993 94.1682C87.8181 94.0276 87.458 93.9573 87.0191 93.9573C86.4182 93.9573 85.9175 94.0958 85.517 94.3727C85.1206 94.6455 84.9225 94.9928 84.9225 95.4146C84.9225 95.7896 85.0589 96.0858 85.3316 96.3031C85.6043 96.5205 86.0305 96.7016 86.61 96.8465L88.0674 97.2044C88.9452 97.4175 89.5993 97.7435 90.0297 98.1824C90.4601 98.6171 90.6753 99.1774 90.6753 99.8635C90.6753 100.426 90.5134 100.929 90.1895 101.372C89.8699 101.815 89.4225 102.165 88.8472 102.42C88.2719 102.676 87.6029 102.804 86.8401 102.804C85.8387 102.804 85.0099 102.587 84.3536 102.152C83.6974 101.717 83.2819 101.082 83.1072 100.247L84.539 99.8891C84.6753 100.417 84.9331 100.814 85.3124 101.078C85.6959 101.342 86.1966 101.474 86.8145 101.474C87.5177 101.474 88.0759 101.325 88.4893 101.027C88.9069 100.724 89.1157 100.362 89.1157 99.9402C89.1157 99.5993 88.9964 99.3138 88.7577 99.0837C88.5191 98.8493 88.1526 98.6746 87.6583 98.5595L86.0219 98.176C85.1228 97.9629 84.4623 97.6327 84.0404 97.1852C83.6228 96.7335 83.414 96.1689 83.414 95.4913C83.414 94.9374 83.5695 94.4473 83.8806 94.0212C84.1959 93.595 84.6242 93.2605 85.1654 93.0176C85.7108 92.7747 86.3287 92.6533 87.0191 92.6533C87.9907 92.6533 88.7535 92.8663 89.3074 93.2925C89.8657 93.7186 90.262 94.2811 90.4964 94.98Z" fill="white"/>
<path d="M57.9999 1L86.28 19.3821V39.1782L57.9999 57.5603L29.7197 39.1782V19.3821L57.9999 1Z" stroke="white" stroke-width="2" stroke-linecap="round" stroke-linejoin="round"/>
<path d="M58 57.5603V39.1782" stroke="white" stroke-width="2" stroke-linecap="round" stroke-linejoin="round"/>
<path d="M86.28 19.3821L57.9999 39.1782L29.7197 19.3821" stroke="white" stroke-width="2" stroke-linecap="round" stroke-linejoin="round"/>
<path d="M29.7197 39.1782L57.9999 19.3821L86.28 39.1782" stroke="white" stroke-width="2" stroke-linecap="round" stroke-linejoin="round"/>
<path d="M58 1V19.3821" stroke="white" stroke-width="2" stroke-linecap="round" stroke-linejoin="round"/>
</svg>
